<?xml version="1.0" encoding="UTF-8" standalone="no"?>
<!-- Created with Inkscape (http://www.inkscape.org/) -->

<svg
   xmlns:dc="http://purl.org/dc/elements/1.1/"
   xmlns:cc="http://creativecommons.org/ns#"
   xmlns:rdf="http://www.w3.org/1999/02/22-rdf-syntax-ns#"
   xmlns:svg="http://www.w3.org/2000/svg"
   xmlns="http://www.w3.org/2000/svg"
   xmlns:sodipodi="http://sodipodi.sourceforge.net/DTD/sodipodi-0.dtd"
   xmlns:inkscape="http://www.inkscape.org/namespaces/inkscape"
   width="469.41632"
   height="467.39606"
   id="svg2"
   version="1.1"
   inkscape:version="0.48.4 r9939"
   sodipodi:docname="New document 1">
  <defs
     id="defs4" />
  <sodipodi:namedview
     id="base"
     pagecolor="#ffffff"
     bordercolor="#666666"
     borderopacity="1.0"
     inkscape:pageopacity="0.0"
     inkscape:pageshadow="2"
     inkscape:zoom="0.35"
     inkscape:cx="290.65522"
     inkscape:cy="230.89602"
     inkscape:document-units="px"
     inkscape:current-layer="layer1"
     showgrid="false"
     fit-margin-top="10"
     fit-margin-left="10"
     fit-margin-right="10"
     fit-margin-bottom="10"
     inkscape:window-width="1738"
     inkscape:window-height="984"
     inkscape:window-x="2054"
     inkscape:window-y="34"
     inkscape:window-maximized="0" />
  <metadata
     id="metadata7">
    <rdf:RDF>
      <cc:Work
         rdf:about="">
        <dc:format>image/svg+xml</dc:format>
        <dc:type
           rdf:resource="http://purl.org/dc/dcmitype/StillImage" />
        <dc:title></dc:title>
      </cc:Work>
    </rdf:RDF>
  </metadata>
  <g
     inkscape:label="Layer 1"
     inkscape:groupmode="layer"
     id="layer1"
     transform="translate(-104.19799,-328.23509)">
    <text
       xml:space="preserve"
       style="font-size:86px;font-style:normal;font-variant:normal;font-weight:bold;font-stretch:normal;text-align:start;line-height:125%;letter-spacing:0px;word-spacing:0px;writing-mode:lr-tb;text-anchor:start;fill:#c50000;fill-opacity:1;stroke:none;font-family:Century Schoolbook L;-inkscape-font-specification:Century Schoolbook L Bold"
       x="242.45691"
       y="648.32141"
       id="text3813"
       sodipodi:linespacing="125%"><tspan
         sodipodi:role="line"
         id="tspan3815"
         x="242.45691"
         y="648.32141">M</tspan></text>
    <g
       id="g3761">
      <path
         d="m 228.29447,397.78333 c 0,30.12615 -24.42208,54.54823 -54.54824,54.54823 -30.12616,0 -54.54824,-24.42208 -54.54824,-54.54823 0,-30.12616 24.42208,-54.54824 54.54824,-54.54824 30.12616,0 54.54824,24.42208 54.54824,54.54824 z"
         sodipodi:ry="54.548237"
         sodipodi:rx="54.548237"
         sodipodi:cy="397.78333"
         sodipodi:cx="173.74623"
         id="path2985"
         style="fill:none;stroke:#000000;stroke-width:10;stroke-linecap:butt;stroke-linejoin:round;stroke-miterlimit:0;stroke-opacity:1;stroke-dasharray:none;stroke-dashoffset:0"
         sodipodi:type="arc" />
      <path
         transform="translate(110.1066,0)"
         sodipodi:type="arc"
         style="fill:none;stroke:#000000;stroke-width:10;stroke-linecap:butt;stroke-linejoin:round;stroke-miterlimit:0;stroke-opacity:1;stroke-dasharray:none;stroke-dashoffset:0"
         id="path3755"
         sodipodi:cx="173.74623"
         sodipodi:cy="397.78333"
         sodipodi:rx="54.548237"
         sodipodi:ry="54.548237"
         d="m 228.29447,397.78333 c 0,30.12615 -24.42208,54.54823 -54.54824,54.54823 -30.12616,0 -54.54824,-24.42208 -54.54824,-54.54823 0,-30.12616 24.42208,-54.54824 54.54824,-54.54824 30.12616,0 54.54824,24.42208 54.54824,54.54824 z" />
      <path
         d="m 228.29447,397.78333 c 0,30.12615 -24.42208,54.54823 -54.54824,54.54823 -30.12616,0 -54.54824,-24.42208 -54.54824,-54.54823 0,-30.12616 24.42208,-54.54824 54.54824,-54.54824 30.12616,0 54.54824,24.42208 54.54824,54.54824 z"
         sodipodi:ry="54.548237"
         sodipodi:rx="54.548237"
         sodipodi:cy="397.78333"
         sodipodi:cx="173.74623"
         id="path3757"
         style="fill:none;stroke:#000000;stroke-width:10;stroke-linecap:butt;stroke-linejoin:round;stroke-miterlimit:0;stroke-opacity:1;stroke-dasharray:none;stroke-dashoffset:0"
         sodipodi:type="arc"
         transform="translate(220.21323,0)" />
      <path
         transform="translate(330.31986,0)"
         sodipodi:type="arc"
         style="fill:none;stroke:#000000;stroke-width:10;stroke-linecap:butt;stroke-linejoin:round;stroke-miterlimit:0;stroke-opacity:1;stroke-dasharray:none;stroke-dashoffset:0"
         id="path3759"
         sodipodi:cx="173.74623"
         sodipodi:cy="397.78333"
         sodipodi:rx="54.548237"
         sodipodi:ry="54.548237"
         d="m 228.29447,397.78333 c 0,30.12615 -24.42208,54.54823 -54.54824,54.54823 -30.12616,0 -54.54824,-24.42208 -54.54824,-54.54823 0,-30.12616 24.42208,-54.54824 54.54824,-54.54824 30.12616,0 54.54824,24.42208 54.54824,54.54824 z" />
    </g>
    <g
       id="g3767"
       transform="translate(0,109.43314)">
      <path
         sodipodi:type="arc"
         style="fill:none;stroke:#000000;stroke-width:10;stroke-linecap:butt;stroke-linejoin:round;stroke-miterlimit:0;stroke-opacity:1;stroke-dasharray:none;stroke-dashoffset:0"
         id="path3769"
         sodipodi:cx="173.74623"
         sodipodi:cy="397.78333"
         sodipodi:rx="54.548237"
         sodipodi:ry="54.548237"
         d="m 228.29447,397.78333 c 0,30.12615 -24.42208,54.54823 -54.54824,54.54823 -30.12616,0 -54.54824,-24.42208 -54.54824,-54.54823 0,-30.12616 24.42208,-54.54824 54.54824,-54.54824 30.12616,0 54.54824,24.42208 54.54824,54.54824 z" />
      <path
         d="m 228.29447,397.78333 c 0,30.12615 -24.42208,54.54823 -54.54824,54.54823 -30.12616,0 -54.54824,-24.42208 -54.54824,-54.54823 0,-30.12616 24.42208,-54.54824 54.54824,-54.54824 30.12616,0 54.54824,24.42208 54.54824,54.54824 z"
         sodipodi:ry="54.548237"
         sodipodi:rx="54.548237"
         sodipodi:cy="397.78333"
         sodipodi:cx="173.74623"
         id="path3771"
         style="fill:none;stroke:#000000;stroke-width:10;stroke-linecap:butt;stroke-linejoin:round;stroke-miterlimit:0;stroke-opacity:1;stroke-dasharray:none;stroke-dashoffset:0"
         sodipodi:type="arc"
         transform="translate(110.1066,0)" />
      <path
         transform="translate(220.21323,0)"
         sodipodi:type="arc"
         style="fill:none;stroke:#000000;stroke-width:10;stroke-linecap:butt;stroke-linejoin:round;stroke-miterlimit:0;stroke-opacity:1;stroke-dasharray:none;stroke-dashoffset:0"
         id="path3773"
         sodipodi:cx="173.74623"
         sodipodi:cy="397.78333"
         sodipodi:rx="54.548237"
         sodipodi:ry="54.548237"
         d="m 228.29447,397.78333 c 0,30.12615 -24.42208,54.54823 -54.54824,54.54823 -30.12616,0 -54.54824,-24.42208 -54.54824,-54.54823 0,-30.12616 24.42208,-54.54824 54.54824,-54.54824 30.12616,0 54.54824,24.42208 54.54824,54.54824 z" />
      <path
         d="m 228.29447,397.78333 c 0,30.12615 -24.42208,54.54823 -54.54824,54.54823 -30.12616,0 -54.54824,-24.42208 -54.54824,-54.54823 0,-30.12616 24.42208,-54.54824 54.54824,-54.54824 30.12616,0 54.54824,24.42208 54.54824,54.54824 z"
         sodipodi:ry="54.548237"
         sodipodi:rx="54.548237"
         sodipodi:cy="397.78333"
         sodipodi:cx="173.74623"
         id="path3775"
         style="fill:none;stroke:#000000;stroke-width:10;stroke-linecap:butt;stroke-linejoin:round;stroke-miterlimit:0;stroke-opacity:1;stroke-dasharray:none;stroke-dashoffset:0"
         sodipodi:type="arc"
         transform="translate(330.31986,0)" />
    </g>
    <g
       transform="translate(0,218.86636)"
       id="g3777">
      <path
         d="m 228.29447,397.78333 c 0,30.12615 -24.42208,54.54823 -54.54824,54.54823 -30.12616,0 -54.54824,-24.42208 -54.54824,-54.54823 0,-30.12616 24.42208,-54.54824 54.54824,-54.54824 30.12616,0 54.54824,24.42208 54.54824,54.54824 z"
         sodipodi:ry="54.548237"
         sodipodi:rx="54.548237"
         sodipodi:cy="397.78333"
         sodipodi:cx="173.74623"
         id="path3779"
         style="fill:none;stroke:#000000;stroke-width:10;stroke-linecap:butt;stroke-linejoin:round;stroke-miterlimit:0;stroke-opacity:1;stroke-dasharray:none;stroke-dashoffset:0"
         sodipodi:type="arc" />
      <path
         transform="translate(110.1066,0)"
         sodipodi:type="arc"
         style="fill:none;stroke:#000000;stroke-width:10;stroke-linecap:butt;stroke-linejoin:round;stroke-miterlimit:0;stroke-opacity:1;stroke-dasharray:none;stroke-dashoffset:0"
         id="path3781"
         sodipodi:cx="173.74623"
         sodipodi:cy="397.78333"
         sodipodi:rx="54.548237"
         sodipodi:ry="54.548237"
         d="m 228.29447,397.78333 c 0,30.12615 -24.42208,54.54823 -54.54824,54.54823 -30.12616,0 -54.54824,-24.42208 -54.54824,-54.54823 0,-30.12616 24.42208,-54.54824 54.54824,-54.54824 30.12616,0 54.54824,24.42208 54.54824,54.54824 z" />
      <path
         d="m 228.29447,397.78333 c 0,30.12615 -24.42208,54.54823 -54.54824,54.54823 -30.12616,0 -54.54824,-24.42208 -54.54824,-54.54823 0,-30.12616 24.42208,-54.54824 54.54824,-54.54824 30.12616,0 54.54824,24.42208 54.54824,54.54824 z"
         sodipodi:ry="54.548237"
         sodipodi:rx="54.548237"
         sodipodi:cy="397.78333"
         sodipodi:cx="173.74623"
         id="path3783"
         style="fill:none;stroke:#000000;stroke-width:10;stroke-linecap:butt;stroke-linejoin:round;stroke-miterlimit:0;stroke-opacity:1;stroke-dasharray:none;stroke-dashoffset:0"
         sodipodi:type="arc"
         transform="translate(220.21323,0)" />
      <path
         transform="translate(330.31986,0)"
         sodipodi:type="arc"
         style="fill:none;stroke:#000000;stroke-width:10;stroke-linecap:butt;stroke-linejoin:round;stroke-miterlimit:0;stroke-opacity:1;stroke-dasharray:none;stroke-dashoffset:0"
         id="path3785"
         sodipodi:cx="173.74623"
         sodipodi:cy="397.78333"
         sodipodi:rx="54.548237"
         sodipodi:ry="54.548237"
         d="m 228.29447,397.78333 c 0,30.12615 -24.42208,54.54823 -54.54824,54.54823 -30.12616,0 -54.54824,-24.42208 -54.54824,-54.54823 0,-30.12616 24.42208,-54.54824 54.54824,-54.54824 30.12616,0 54.54824,24.42208 54.54824,54.54824 z" />
    </g>
    <g
       id="g3787"
       transform="translate(0,328.29957)">
      <path
         sodipodi:type="arc"
         style="fill:none;stroke:#000000;stroke-width:10;stroke-linecap:butt;stroke-linejoin:round;stroke-miterlimit:0;stroke-opacity:1;stroke-dasharray:none;stroke-dashoffset:0"
         id="path3789"
         sodipodi:cx="173.74623"
         sodipodi:cy="397.78333"
         sodipodi:rx="54.548237"
         sodipodi:ry="54.548237"
         d="m 228.29447,397.78333 c 0,30.12615 -24.42208,54.54823 -54.54824,54.54823 -30.12616,0 -54.54824,-24.42208 -54.54824,-54.54823 0,-30.12616 24.42208,-54.54824 54.54824,-54.54824 30.12616,0 54.54824,24.42208 54.54824,54.54824 z" />
      <path
         d="m 228.29447,397.78333 c 0,30.12615 -24.42208,54.54823 -54.54824,54.54823 -30.12616,0 -54.54824,-24.42208 -54.54824,-54.54823 0,-30.12616 24.42208,-54.54824 54.54824,-54.54824 30.12616,0 54.54824,24.42208 54.54824,54.54824 z"
         sodipodi:ry="54.548237"
         sodipodi:rx="54.548237"
         sodipodi:cy="397.78333"
         sodipodi:cx="173.74623"
         id="path3791"
         style="fill:none;stroke:#000000;stroke-width:10;stroke-linecap:butt;stroke-linejoin:round;stroke-miterlimit:0;stroke-opacity:1;stroke-dasharray:none;stroke-dashoffset:0"
         sodipodi:type="arc"
         transform="translate(110.1066,0)" />
      <path
         transform="translate(220.21323,0)"
         sodipodi:type="arc"
         style="fill:none;stroke:#000000;stroke-width:10;stroke-linecap:butt;stroke-linejoin:round;stroke-miterlimit:0;stroke-opacity:1;stroke-dasharray:none;stroke-dashoffset:0"
         id="path3793"
         sodipodi:cx="173.74623"
         sodipodi:cy="397.78333"
         sodipodi:rx="54.548237"
         sodipodi:ry="54.548237"
         d="m 228.29447,397.78333 c 0,30.12615 -24.42208,54.54823 -54.54824,54.54823 -30.12616,0 -54.54824,-24.42208 -54.54824,-54.54823 0,-30.12616 24.42208,-54.54824 54.54824,-54.54824 30.12616,0 54.54824,24.42208 54.54824,54.54824 z" />
      <path
         d="m 228.29447,397.78333 c 0,30.12615 -24.42208,54.54823 -54.54824,54.54823 -30.12616,0 -54.54824,-24.42208 -54.54824,-54.54823 0,-30.12616 24.42208,-54.54824 54.54824,-54.54824 30.12616,0 54.54824,24.42208 54.54824,54.54824 z"
         sodipodi:ry="54.548237"
         sodipodi:rx="54.548237"
         sodipodi:cy="397.78333"
         sodipodi:cx="173.74623"
         id="path3795"
         style="fill:none;stroke:#000000;stroke-width:10;stroke-linecap:butt;stroke-linejoin:round;stroke-miterlimit:0;stroke-opacity:1;stroke-dasharray:none;stroke-dashoffset:0"
         sodipodi:type="arc"
         transform="translate(330.31986,0)" />
    </g>
    <text
       xml:space="preserve"
       style="font-size:28.59794235px;font-style:normal;font-variant:normal;font-weight:normal;font-stretch:normal;text-align:start;line-height:125%;letter-spacing:0px;word-spacing:0px;writing-mode:lr-tb;text-anchor:start;fill:#000000;fill-opacity:1;stroke:none;font-family:cmr10;-inkscape-font-specification:cmr10"
       x="166.67517"
       y="238.17923"
       id="text3797"
       sodipodi:linespacing="125%"><tspan
         sodipodi:role="line"
         id="tspan3799"
         x="166.67517"
         y="238.17923" /></text>
    <text
       xml:space="preserve"
       style="font-size:28.59794235px;font-style:normal;font-variant:normal;font-weight:bold;font-stretch:normal;text-align:start;line-height:125%;letter-spacing:0px;word-spacing:0px;writing-mode:lr-tb;text-anchor:start;fill:#000000;fill-opacity:1;stroke:none;font-family:Century Schoolbook L;-inkscape-font-specification:Century Schoolbook L Bold"
       x="207.08127"
       y="223.02695"
       id="text3801"
       sodipodi:linespacing="125%"><tspan
         sodipodi:role="line"
         id="tspan3803"
         x="207.08127"
         y="223.02695" /></text>
    <text
       xml:space="preserve"
       style="font-size:86px;font-style:normal;font-variant:normal;font-weight:bold;font-stretch:normal;text-align:start;line-height:125%;letter-spacing:0px;word-spacing:0px;writing-mode:lr-tb;text-anchor:start;fill:#c50000;fill-opacity:1;stroke:none;font-family:Century Schoolbook L;-inkscape-font-specification:Century Schoolbook L Bold"
       x="251.528"
       y="537.18439"
       id="text3805"
       sodipodi:linespacing="125%"><tspan
         sodipodi:role="line"
         id="tspan3807"
         x="251.528"
         y="537.18439"
         style="font-size:86px;font-style:normal;font-variant:normal;font-weight:bold;font-stretch:normal;text-align:start;line-height:125%;writing-mode:lr-tb;text-anchor:start;fill:#c50000;fill-opacity:1;font-family:Century Schoolbook L;-inkscape-font-specification:Century Schoolbook L Bold">D</tspan></text>
    <text
       xml:space="preserve"
       style="font-size:86px;font-style:normal;font-variant:normal;font-weight:bold;font-stretch:normal;text-align:start;line-height:125%;letter-spacing:0px;word-spacing:0px;writing-mode:lr-tb;text-anchor:start;fill:#c50000;fill-opacity:1;stroke:none;font-family:Century Schoolbook L;-inkscape-font-specification:Century Schoolbook L Bold"
       x="373.75644"
       y="537.1438"
       id="text3809"
       sodipodi:linespacing="125%"><tspan
         sodipodi:role="line"
         id="tspan3811"
         x="373.75644"
         y="537.1438">I</tspan></text>
    <text
       xml:space="preserve"
       style="font-size:86px;font-style:normal;font-variant:normal;font-weight:bold;font-stretch:normal;text-align:start;line-height:125%;letter-spacing:0px;word-spacing:0px;writing-mode:lr-tb;text-anchor:start;fill:#c50000;fill-opacity:1;stroke:none;font-family:Century Schoolbook L;-inkscape-font-specification:Century Schoolbook L Bold"
       x="361.00226"
       y="645.53613"
       id="text3817"
       sodipodi:linespacing="125%"><tspan
         sodipodi:role="line"
         id="tspan3819"
         x="361.00226"
         y="645.53613">A</tspan></text>
  </g>
</svg>
